<?xml version="1.0" encoding="utf-8"?>
<!-- Generator: Adobe Illustrator 25.2.0, SVG Export Plug-In . SVG Version: 6.00 Build 0)  -->
<svg version="1.1" id="Layer_1" xmlns="http://www.w3.org/2000/svg" xmlns:xlink="http://www.w3.org/1999/xlink" x="0px" y="0px"
	 viewBox="0 0 500 500" style="enable-background:new 0 0 500 500;" xml:space="preserve">
<style type="text/css">
	.st0{fill:#FFFFFF;}
	.st1{fill:none;}
</style>
<g>
	<path class="st0" d="M61,494c-30.3,0-55-24.7-55-55V61C6,30.7,30.7,6,61,6h378c30.3,0,55,24.7,55,55v378c0,30.3-24.7,55-55,55H61z"
		/>
	<path d="M439,11c27.6,0,50,22.4,50,50v378c0,27.6-22.4,50-50,50H61c-27.6,0-50-22.4-50-50V61c0-27.6,22.4-50,50-50H439 M439,1H61
		C27.9,1,1,27.9,1,61v378c0,33.1,26.9,60,60,60h378c33.1,0,60-26.9,60-60V61C499,27.9,472.1,1,439,1L439,1z"/>
</g>
<g>
	<path d="M401.5,81.5c0,0.1,0,0.3-0.1,0.5C401.4,81.9,401.5,81.7,401.5,81.5z"/>
</g>
<g>
	<path d="M401.5,81.5c0,0.1,0,0.3-0.1,0.5C401.4,81.9,401.5,81.7,401.5,81.5z"/>
</g>
<g>
	<path d="M441.8,146.8c-1.1-0.7-2.5-1-3.8-0.9c-0.1,0-0.3,0-0.5,0h0l-60.5,0.5V50.9c0-3.3-2.7-6-6-6H210.3c-3.3,0-6,2.7-6,6v22.4
		H161c-3.3,0-6,2.7-6,6v27.9h-29.5c-3.3,0-6,2.7-6,6v66.7l-59.5,21.7c-1.5,0.5-2.7,1.6-3.3,3c0,0,0,0,0,0c-0.7,1-1.1,2.3-1.1,3.6
		v251.1c0,3.6,2.9,6.5,6.5,6.5h255c1,0,1.9-0.2,2.7-0.6c0.5-0.2,1-0.4,1.5-0.7l120.6-77.9c1.7-1.1,2.7-3,2.7-5V151.9
		C444.5,149.8,443.5,147.9,441.8,146.8z M411.1,158.1l-34.1,16v-15.7L411.1,158.1z M330.8,73.3H216.3V56.9H365v122.8l-28.2,13.2
		V79.3C336.8,76,334.1,73.3,330.8,73.3z M131.5,119.2h157.7v82.5H131.5V119.2z M119.5,192.7v9.1H94.6L119.5,192.7z M310.5,452.8
		h-242V214.7h242V452.8z M317.9,201.8c-0.3,0-0.6-0.1-0.9-0.1h-15.8v-88.5c0-3.3-2.7-6-6-6H167V85.3h157.9v113.2L317.9,201.8z
		 M432.5,378.4L324,448.5V212.2l0.9-0.4l6-2.8l6-2.8l28.2-13.2l12-5.6l55.5-26V378.4z"/>
</g>
<g>
	<line class="st1" x1="129.3" y1="282.3" x2="211.5" y2="282.3"/>
	<path d="M239.9,274.6c-0.4,8.1-7.3,14.3-15.4,14.3h-81.7c-8.5,0-15.4-7.1-15-15.7c0.3-8.1,7.3-14.3,15.5-14.3h81.7
		C233.4,258.8,240.3,266,239.9,274.6z"/>
</g>
</svg>
