<?xml version="1.0" encoding="utf-8"?>
<!-- Generator: Adobe Illustrator 25.1.0, SVG Export Plug-In . SVG Version: 6.00 Build 0)  -->
<svg version="1.1" id="Layer_1" xmlns="http://www.w3.org/2000/svg" xmlns:xlink="http://www.w3.org/1999/xlink" x="0px" y="0px"
	 viewBox="0 0 500 500" style="enable-background:new 0 0 500 500;" xml:space="preserve">
<style type="text/css">
	.st0{fill:#FFFFFF;}
	.st1{fill:#FFFFFF;stroke:#000000;stroke-width:10;stroke-miterlimit:10;}
</style>
<g>
	<path class="st0" d="M61,496c-30.3,0-55-24.7-55-55V63C6,32.7,30.7,8,61,8h378c30.3,0,55,24.7,55,55v378c0,30.3-24.7,55-55,55H61z"
		/>
	<path d="M439,13c27.6,0,50,22.4,50,50v378c0,27.6-22.4,50-50,50H61c-27.6,0-50-22.4-50-50V63c0-27.6,22.4-50,50-50H439 M439,3H61
		C27.9,3,1,29.9,1,63v378c0,33.1,26.9,60,60,60h378c33.1,0,60-26.9,60-60V63C499,29.9,472.1,3,439,3L439,3z"/>
</g>
<path d="M401.5,81.5c0,0.1,0,0.3-0.1,0.5C401.4,81.9,401.5,81.7,401.5,81.5z"/>
<path d="M435.7,297.2c-3.1-2-9.6-1.9-8-20.6l4.5-4.8c9.1-9.5,5.1-20.6-8.3-23.5l-0.3-0.1L287.4,396l-0.1,0.1
	c-8.2,8.8-19.7,13.8-31.7,13.8c-3.1,0-6.2-0.3-9.2-1L70.3,373.2l-5.6,5.6c-3.8,3.8-5.4,7.9-5.2,11.7l0,0l0.5,40.9
	c0,6.3,4.4,11.8,10.6,13.2l182.3,36.9c11.5,2.5,23.5-1.2,31.6-9.8L434.3,309c1.6-1.7,2.8-3.8,3.5-6.1
	C438.5,300.7,437.6,298.4,435.7,297.2z M429.5,263.5c0,0.1,0,0.3-0.1,0.5C429.4,263.9,429.5,263.7,429.5,263.5z M426.5,301.6
	C412.6,317,299.3,439,273.3,465.6c-3.3,3.4-8.1,4.8-12.7,3.9L79.2,431.3c-3.6-0.8-6.2-4-6.2-7.7V409c0-5.9,4-5,6-5l1.4,0.2
	l170.5,34.5c10.9,2.2,24.4-1.8,31.7-9.5l138.3-145.4c-0.5,6,1.5,12,5.8,15C427.7,299.3,427.3,300.8,426.5,301.6z"/>
<path d="M401.5,81.5c0,0.1,0,0.3-0.1,0.5C401.4,81.9,401.5,81.7,401.5,81.5z"/>
<path d="M431.2,214.8c-3.1-2-9.6-1.8-8-20.6l4.6-4.8c9.1-9.5,5.1-20.6-8.4-23.5l-3.6-0.8l-62.9,68.3l-69.6,75.6l-0.1,0.1
	c-8.2,8.8-19.7,13.8-31.7,13.8c-3.1,0-6.2-0.3-9.2-1l-101.1-20.4L69.7,287l-9.4,9.5c-3.8,3.8-5.5,7.9-5.2,11.7l0,0l0.5,40.9
	c0,6.3,4.4,11.8,10.6,13.2l12.5,2.5l169.8,34.3c2.4,0.5,4.8,0.8,7.2,0.8c9.2,0,18-3.8,24.4-10.6l132.1-143.3l17.8-19.3
	c1.6-1.7,2.8-3.8,3.5-6.1C434.1,218.4,433.1,216.1,431.2,214.8z M422.1,219.3c-3.1,3.4-11.2,12.2-22.2,24.1
	c-0.9,0.9-1.8,1.9-2.6,2.9c-0.4,0.4-0.7,0.8-1.1,1.2c-3,3.2-6.2,6.7-9.5,10.3c-0.6,0.6-1.1,1.2-1.7,1.8c-1.1,1.2-2.3,2.5-3.4,3.7
	c-0.9,1-1.9,2-2.8,3c-1.1,1.1-2.1,2.3-3.2,3.5c-0.8,0.9-1.7,1.8-2.6,2.8c-5.4,5.8-11,11.8-16.7,17.9c-1,1.1-2.1,2.2-3.1,3.3
	c-2,2.2-4.1,4.4-6.1,6.5c-0.6,0.6-1.2,1.2-1.7,1.8c-6.3,6.8-12.7,13.6-18.8,20.2c-0.8,0.8-1.6,1.7-2.4,2.5c-2.9,3-5.7,6.1-8.5,9
	c-0.8,0.9-1.6,1.7-2.4,2.5c-6.6,7.1-13,13.8-18.7,20c-0.3,0.3-0.6,0.7-0.9,1c-1.1,1.2-2.3,2.4-3.4,3.6c-0.7,0.7-1.3,1.4-1.9,2
	c-0.1,0.1-0.3,0.3-0.4,0.5c-0.5,0.5-1,1.1-1.5,1.6c-4.5,4.8-8.5,9-11.9,12.5c-0.4,0.5-0.8,0.9-1.3,1.3c-0.2,0.2-0.4,0.4-0.6,0.6
	c-0.2,0.2-0.4,0.4-0.6,0.6c-1.2,1.2-2.2,2.3-3.2,3.3c-2.6,2.7-6.2,4.2-9.9,4.2c-0.9,0-1.9-0.1-2.8-0.3L90.9,352.3L74.8,349
	c-3.6-0.8-6.2-4-6.2-7.7v-14.6c0-4.5,2.4-5,4.4-5c0.6,0,1.2,0,1.6,0l1.4,0.2l37.6,7.6l132.9,26.8c2,0.4,4.1,0.6,6.2,0.6
	c9.4,0,19.5-3.9,25.5-10.2l102.2-107.5l36.1-38c-0.5,6,1.5,12,5.8,15C423.2,216.9,422.8,218.4,422.1,219.3z"/>
<path d="M427.1,127.9c-3.1-2-9.5-1.9-8-20.6l4.6-4.8c9.1-9.6,5.1-20.7-8.4-23.5l-172-36c-2.1-0.4-4.2-0.6-6.4-0.6
	c-9.3,0-19.2,3.7-25.2,9.8L56.2,209.5c-3.8,3.9-5.5,7.9-5.2,11.7h0l0.5,40.9c0,6.3,4.4,11.8,10.6,13.2l4.2,0.9l11.7,2.4l71.6,14.5
	l94.7,19.2c2.4,0.5,4.8,0.8,7.2,0.8c9.2,0,18-3.8,24.4-10.6l65.6-71.2l62.9-68.3l7.9-8.6l13.5-14.6c1.6-1.7,2.8-3.8,3.5-6.1
	C430,131.5,429,129.1,427.1,127.9z M418,132.3c-2.7,3-9.1,9.9-17.9,19.4c-2.5,2.7-5.1,5.5-7.9,8.5c-17.5,18.9-41,44.2-63.4,68.2
	c-27.5,29.4-53.2,56.8-64,67.8c-2.6,2.7-6.2,4.2-9.9,4.2c-0.9,0-1.9-0.1-2.8-0.3l-90.7-19.1l-71.1-14.9l-11.7-2.5l-7.9-1.7
	c-3.6-0.8-6.2-4-6.2-7.7v-14.6c0-4.5,2.4-5,4.4-5c0.6,0,1.2,0,1.6,0l1.4,0.2l29.4,5.9l11.7,2.4l71.6,14.5l57.8,11.7
	c2,0.4,4.1,0.6,6.2,0.6c9.4,0,19.5-3.9,25.5-10.2l33.9-35.7l64.6-67.9l8.1-8.5l31.7-33.3c-0.5,6,1.5,12,5.8,15
	C419.1,130,418.8,131.5,418,132.3z"/>
<g>
	<path class="st0" d="M295.7,129.3c12.3-1.9,22.9-6.6,28.6-13.4c10.3-12.4,0.3-27.4-22.2-33.7c-22.5-6.3-49.9-1.6-61.2,10.6
		c-6.3,6.8-6.3,14.5-1.3,21.2l-48.1,34.4l25.8-0.7l4.8,14l31.6-23.4L242,166.6l22.8-6.6l14.7,11.6L295.7,129.3z M227,150.1l-2.6-7.5
		l-14.6,0.4l34.2-24.6c3.7,3.1,8.7,5.8,14.8,7.9c0.2,0.1,0.3,0.1,0.5,0.2l-0.8,0.6L227,150.1z M266.1,123.3
		c-0.6-0.2-1.2-0.3-1.8-0.5c-1.2-0.4-2.4-0.8-3.5-1.2c-4.8-1.9-8.6-4.3-11.3-7c-1.6-1.5-2.8-3.2-3.7-4.9c-2.4-4.9-1.8-10.1,2.6-14.9
		c9.3-10.1,31.9-14,50.5-8.8c18.6,5.2,26.9,17.6,18.3,27.8c-4,4.8-11,8.3-19.3,10.2c-2.8,0.6-5.8,1.1-8.9,1.3
		c-5.5,0.4-11.2,0.2-16.7-0.7c-1.3-0.2-2.6-0.5-3.8-0.8C267.5,123.7,266.8,123.5,266.1,123.3z M267.5,153.7l-12.9,3.7l11.6-28.4
		l0.3-0.7c0.2,0,0.3,0.1,0.5,0.1c6.6,1.4,13.5,1.9,20.1,1.6l-11.6,29.8L267.5,153.7z"/>
</g>
</svg>
