<?xml version="1.0" encoding="utf-8"?>
<!-- Generator: Adobe Illustrator 25.1.0, SVG Export Plug-In . SVG Version: 6.00 Build 0)  -->
<svg version="1.1" id="Layer_1" xmlns="http://www.w3.org/2000/svg" xmlns:xlink="http://www.w3.org/1999/xlink" x="0px" y="0px"
	 viewBox="0 0 500 500" style="enable-background:new 0 0 500 500;" xml:space="preserve">
<style type="text/css">
	.st0{fill:#FFFFFF;}
	.st1{fill:#FFFFFF;stroke:#000000;stroke-width:10;stroke-miterlimit:10;}
</style>
<g>
	<path class="st0" d="M61,496c-30.3,0-55-24.7-55-55V63C6,32.7,30.7,8,61,8h378c30.3,0,55,24.7,55,55v378c0,30.3-24.7,55-55,55H61z"
		/>
	<path d="M439,13c27.6,0,50,22.4,50,50v378c0,27.6-22.4,50-50,50H61c-27.6,0-50-22.4-50-50V63c0-27.6,22.4-50,50-50H439 M439,3H61
		C27.9,3,1,29.9,1,63v378c0,33.1,26.9,60,60,60h378c33.1,0,60-26.9,60-60V63C499,29.9,472.1,3,439,3L439,3z"/>
</g>
<path d="M401.5,81.5c0,0.1,0,0.3-0.1,0.5C401.4,81.9,401.5,81.7,401.5,81.5z"/>
<path d="M401.5,81.5c0,0.1,0,0.3-0.1,0.5C401.4,81.9,401.5,81.7,401.5,81.5z"/>
<g>
	<g>
		<path d="M232.2,71c-0.9,1.2-1.6,2.5-2.5,3.4c-23.7,20.9-47.2,41.9-70.9,62.8c-0.3,0.3-0.6,0.3-1.6,0.6
			c-12.5-8.7-25-17.8-37.5-26.9c-3.4-2.5-1.9-5,0.6-6.6c8.7-5.9,17.8-11.6,26.9-17.2c19.4-12.2,38.7-24.1,58.1-35.9
			c1.2-0.6,2.5-1.9,3.4-2.8c4.7-1.9,9.1-1.6,12.8,1.9c3.7,3.4,3.4,7.5,1.6,11.9c-1.6,3.4-0.3,5.3,2.8,6.2
			C228.5,69.5,230.4,70.4,232.2,71z"/>
		<path d="M143.8,237.2c-17.8,2.5-30.3,5.6-30.3-3.7c0-10.9,0-37.5,0-50c1.2-0.3,11.6-5.6,12.5-6.2c0,0,25.9-12.8,29.4-13.7
			c17.5-8.1,11.2-8.1,24.4,2.8c9.7,8.1,20.3,15,31.2,22.8c-10,7.2-19.4,13.7-28.7,20.3c-11.6,8.4-23.1,16.9-35,25.3
			C146.3,235.7,145.1,236.3,143.8,237.2z"/>
		<path d="M209.7,264.4c12.8-8.7,25.6-17.8,38.7-26.6c5.3-3.4,10.6-9.4,15.9-9.4c5,0,10.3,5.9,15.3,9.7
			c10.9,7.8,22.2,15.9,34.4,24.7c-9.7,2.5-18.1,4.7-26.2,6.6c-20,5-40.3,10-60.3,14.7c-3.7,0.9-8.1,0.3-12.2,0.3
			C210.4,278.8,205.4,272.9,209.7,264.4z"/>
		<path d="M419.7,190.1c3.4,12.8,6.6,25.6,10.3,38.4c1.6,4.7,0.3,6.2-4.4,7.2c-7.8,1.6-15.6,3.7-23.4,5.6c-1.6,0.3-3.7-0.3-4.7-1.2
			c-12.8-17.8-25.3-35.9-38.1-54.7c14.4-6.2,28.1-11.9,42.2-17.8C407.5,174.8,413.4,182.6,419.7,190.1z"/>
		<path d="M273.5,78.8c4.4,6.6,9.1,13.1,13.7,20.3c-15,6.2-29.1,11.9-43.4,17.8c-23.1,9.4-45.9,18.7-69,28.1
			c-2.2,0.9-4.4,0.9-6.9,1.2c-0.3-0.6-0.6-1.2-0.6-1.9c1.2-1.2,2.2-2.8,3.4-3.7c21.9-19.4,43.7-38.7,65.3-57.8
			c2.2-1.9,4.1-4.1,5.9-5.9c4.4,1.2,9.1,2.2,13.1,4.4C261.9,84.8,268.2,87.3,273.5,78.8z"/>
		<path d="M392.5,351c-20.9,4.1-41.6,8.4-62.5,12.2c-2.5,0.3-5.3,0.3-7.5-0.6c-14.4-7.8-28.4-16.2-42.8-24.4
			c-0.6-0.3-1.2-0.9-2.2-1.9c10.6-5,20.9-9.7,31.6-14.1c1.6-0.6,4.1,0,5.9,0.6c27.8,7.8,55.6,15.6,83.4,23.4
			C396.6,347.5,394.4,349.4,392.5,351z"/>
		<path d="M375.9,133.8c-0.3,0.9-0.6,1.9-1.2,2.5c-10.6,7.8-21.6,15.3-32.8,23.4c-7.8-11.2-15.3-22.2-23.4-33.7
			c12.8-9.1,25.6-18.1,38.1-26.9l0.3,0.3C358.1,113.8,367.2,123.8,375.9,133.8z"/>
		<path d="M164.7,234.7c14.4-10.3,29.1-20.9,43.7-31.2c3.7-2.8,7.8-7.2,11.6-7.2c3.7,0,7.8,4.7,11.6,7.2c6.6,4.7,12.8,9.4,20,14.4
			c-12.5,5.3-24.1,10.3-35.6,15.3c-11.2,0.6-22.5,1.2-34.1,1.9C176.3,235.1,170.4,234.7,164.7,234.7z"/>
		<path d="M332.8,437.2c-8.7,1.6-14.7-3.4-20.6-8.7c-4.1-3.7-8.7-7.5-13.7-11.9c8.4-3.4,16.2-6.9,24.1-10
			c8.4-3.7,17.2-6.9,25.6-10.9c4.7-2.2,8.7-2.8,12.8,0.9c0.6,0.6,1.9,0.9,3.1,1.2c-0.3,0.9-0.3,1.9-0.9,2.5
			C353.1,412.5,343.1,424.7,332.8,437.2z"/>
		<path d="M400,336c-16.2-4.4-32.5-8.7-48.7-13.1c-8.7-2.5-17.2-5-27.2-7.8c4.1-1.9,6.9-3.4,10-4.7c5.3-2.5,10.9-4.1,15.6-7.5
			c9.1-6.2,15.9-4.1,23.7,2.5c7.8,6.9,16.9,12.2,25.3,18.4C399.4,327.8,399.7,331.9,400,336z"/>
		<path d="M224.7,298.8c0.6-0.3,1.6-1.2,2.2-0.9c22.2,6.2,44.4,12.5,68.4,19.1c-10.3,4.7-19.1,8.7-27.8,12.5
			c-1.2,0.6-3.1-0.3-4.7-1.2c-9.1-5-17.8-10-26.9-15C232.5,308.8,228.8,303.8,224.7,298.8z"/>
		<path d="M166.6,49.8c-7.2,6.6-14.4,13.4-21.6,20c-8.4,7.5-16.9,15-25.6,22.8c0-9.7,0-18.7,0-27.8c8.4-10.3,19.1-15,32.2-14.4
			C156.6,50.4,161.6,49.8,166.6,49.8z"/>
		<path d="M450.9,229.7c-9.7,0.9-9.7,0.9-12.2-8.7c-2.5-9.4-5-19.1-7.8-28.4c6.2-0.6,12.5-0.9,18.4-1.6c3.7,5.6,7.8,11.6,11.6,17.2
			C457.5,215.4,454.4,222.6,450.9,229.7z"/>
		<path d="M81.3,95.4c5,3.7,9.7,7.5,15.6,11.6c-13.4,8.4-26.2,16.2-39.7,24.7c-1.9-4.4-3.4-7.8-5-11.2c0.3-0.9,0.3-1.9,0.9-2.5
			C62.3,110.4,71.6,102.9,81.3,95.4z"/>
		<path d="M395.6,159.8c-11.6,4.7-23.1,9.1-34.7,13.7c-8.1,3.4-8.1,3.4-12.5-5.9c11.2-8.1,22.8-16.6,34.1-24.7
			C386.6,148.5,391.3,154.1,395.6,159.8z"/>
		<path d="M241.9,391c7.2-2.8,12.2,0.9,17.2,5.6c6.2,5.6,13.1,11.2,20.6,17.5c-8.7,3.4-16.6,6.6-24.4,9.4
			C251,412.5,246.6,401.9,241.9,391z"/>
		<path d="M354.1,89.2c-13.7,9.4-27.2,18.7-41.2,28.4c-3.1-4.4-6.2-8.7-9.7-13.7c16.2-6.9,32.2-13.7,48.1-20.3
			C351.9,85.1,353.1,87.3,354.1,89.2z"/>
		<path d="M335,79.2c-12.5,5.3-25,10.6-37.8,16.2c-5.6-7.8-10.9-15.3-16.2-23.1c2.5,0,5.6-1.2,7.5-0.3c14.1,6.9,29.4,6.9,44.4,6.9
			C333.5,78.8,334.4,79.2,335,79.2z"/>
		<path d="M260,432.5c8.1-3.4,16.2-6.9,24.4-9.7c1.9-0.6,5-0.3,6.9,0.9c5,3.7,9.7,7.8,15.9,13.1c-16.2,0-31.2,0-45.9,0
			C260.7,435.3,260.3,433.8,260,432.5z"/>
		<path d="M396.9,309.7c-7.8-5.3-15.6-10.6-24.7-16.9c8.4-3.4,15.3-6.6,22.5-9.4C395.3,291.9,396.3,300.7,396.9,309.7z"/>
		<path d="M109.1,72.6c-0.6,9.4-1.2,19.1-1.9,29.7c-7.2-5-12.8-9.1-18.7-13.1C95.7,83.5,102.6,78.2,109.1,72.6z"/>
		<path d="M365.9,378.5c-0.3,0-0.9,0-1.2,0c-10.6,6.9-17.2-2.2-25.3-7.2c10.6-2.2,20.9-4.1,31.6-6.2
			C366.3,368.1,367.8,374.1,365.9,378.5z"/>
		<path d="M412.5,262.6c-2.5-3.7-4.7-7.5-7.5-11.9c9.4-2.2,17.8-4.4,26.6-6.6c0.9-0.3,1.9,0.6,2.8,0.9
			C427.2,251,420,256.6,412.5,262.6z"/>
		<path d="M238.5,325.7c5.3,3.1,10.6,6.2,16.9,10c-9.4,4.1-17.5,7.8-25.9,11.2C232.5,340,235.4,332.8,238.5,325.7z"/>
		<path d="M103.8,203.8c0.3,10.9,4.4,19.7,0.3,29.7c-0.6-0.6-13.4-1.2-13.7-1.9c-0.9-3.1-1.2-6.6-2.8-9.4c-2.5-4.7-1.2-7.2,2.8-10.3
			c4.1-3.1,7.8-6.9,11.6-10.3C102.6,202.6,103.2,203.2,103.8,203.8z"/>
		<path d="M215,243.2c3.7-1.2,7.5-2.5,11.2-3.7c0.3,0.3,0.6,0.9,0.6,1.2c-4.7,3.1-9.1,5.9-13.7,9.1
			C214.1,247.6,214.7,245.4,215,243.2z"/>
		<path d="M189.7,47.9c-4.4,3.4-8.7,7.2-13.1,10.6c-0.3-0.6-0.9-0.9-1.2-1.6c2.5-2.5,4.7-5,7.2-7.5
			C184.7,48.9,187.2,48.5,189.7,47.9z"/>
		<path d="M273.2,220.1c25.3-10.3,50.3-20.6,76.2-31.2c12.8,18.1,25.3,36.6,38.7,55.6c-6.2,1.6-11.9,3.1-17.5,4.4
			c-13.4,3.4-26.9,6.6-40.3,10c-1.9,0.3-4.4,0.3-5.6-0.6c-16.9-11.9-33.7-24.1-50.6-36.2C273.8,221.6,273.8,221.3,273.2,220.1z"/>
		<path d="M228.5,189.1c27.8-19.4,54.4-38.1,81.5-57.5c7.8,11.6,15.6,22.5,23.4,33.7c-15.9,11.2-31.6,22.2-47.2,33.1
			c-6.2,4.4-12.5,8.7-19.1,12.8c-3.1,2.2-5.6,1.6-8.4-0.6C249.1,203.8,239.1,196.9,228.5,189.1z"/>
		<path d="M179.4,153.8c13.7-5.6,26.2-10.6,38.7-15.9c23.1-9.4,45.9-18.7,69-28.4c4.4-1.9,7.2-1.9,9.4,2.8c1.9,3.7,4.7,7.2,7.5,11.2
			c-7.8,5.6-15.3,10.9-22.8,16.2c-19.1,13.4-38.1,26.9-57.5,40.3c-1.6,1.2-5.3,1.9-6.6,0.6C204.7,172.3,192.6,163.5,179.4,153.8z"/>
		<path d="M242.2,290.7c26.2-6.6,52.5-13.1,78.7-19.4c1.6-0.3,3.7-0.3,4.7,0.3c8.7,5.9,17.2,12.2,26.9,19.4
			c-8.7,4.1-17.2,7.2-25,11.9c-12.8,7.8-25,8.1-38.7,2.8c-13.7-5-28.1-8.1-41.9-12.2c-1.9-0.6-3.4-1.2-5-1.6
			C242.2,291.3,242.2,291,242.2,290.7z"/>
		<path d="M107,117c-0.9,18.7-1.6,35.9-2.5,52.8c0,1.6-1.2,4.4-2.8,5c-8.7,3.7-17.5,7.5-26.6,11.2c-3.4-10-6.9-19.1-9.7-28.4
			c-0.3-1.2,0-3.4,0.9-4.4C79.5,141,92.9,129.5,107,117z"/>
		<path d="M229.4,358.5c12.2-5.6,23.1-10.6,34.4-15.6c0.9-0.3,2.8-0.6,3.7,0c14.1,7.8,27.8,15.9,42.8,24.7
			c-5.9,1.2-10.3,2.2-14.7,3.1c-12.5,2.5-25.3,5-37.8,7.5c-1.6,0.3-4.1,0.6-5.3-0.3C245,371.6,237.5,365.3,229.4,358.5z"/>
		<path d="M344.4,386.6c-14.7,6.2-28.4,10.9-41.2,17.5c-9.4,4.7-16.2,4.4-23.4-3.4c-4.4-5-10-8.7-16.2-14.1
			c10.6-2.2,19.7-4.1,29.1-5.9c8.4-1.9,16.9-3.7,25.3-5c3.1-0.3,6.9,0,10,1.6C333.1,379.7,337.8,383.1,344.4,386.6z"/>
		<path d="M337.2,267.2c13.7-3.4,26.2-6.6,38.4-9.7c1.6-0.3,3.1-0.9,5-1.2c15-3.7,15-3.7,22.8,11.2c-7.8,3.7-15.9,7.5-23.7,10.9
			c-1.2,0.6-2.8,0.9-4.1,1.9c-8.4,6.2-15.6,5-23.1-1.9C348.5,274.4,343.1,271.6,337.2,267.2z"/>
		<path d="M117.3,122c11.6,8.1,21.6,15.6,32.8,23.4c-11.2,9.1-19.4,20.6-35,23.4C115.7,153.5,116.6,138.2,117.3,122z"/>
		<path d="M82,206c-1.2-4.4-2.2-7.2-3.4-10.6c8.4-3.4,16.2-6.6,24.4-10c0.3,0.3,0.6,0.9,0.9,1.2C96.6,192.9,89.8,198.8,82,206z"/>
		<path d="M343.8,180.7c-9.7,4.1-18.7,7.5-27.5,11.2c-0.3-0.3-0.3-0.9-0.6-1.2c7.8-5.3,15.3-10.9,23.4-16.6
			C340.6,176.3,341.9,178.2,343.8,180.7z"/>
	</g>
	<polygon points="263.5,447.5 327.5,447.5 294.1,450 266.6,450 	"/>
</g>
</svg>
