<?xml version="1.0" encoding="utf-8"?>
<!-- Generator: Adobe Illustrator 25.2.0, SVG Export Plug-In . SVG Version: 6.00 Build 0)  -->
<svg version="1.1" id="Layer_1" xmlns="http://www.w3.org/2000/svg" xmlns:xlink="http://www.w3.org/1999/xlink" x="0px" y="0px"
	 viewBox="0 0 307 138" style="enable-background:new 0 0 307 138;" xml:space="preserve">
<style type="text/css">
	.st0{fill:#0B1011;}
	.st1{fill:#CAD7DE;}
	.st2{fill:#EF3900;}
	.st3{fill:#FFF7CC;}
	.st4{fill:#848687;}
	.st5{fill:#F8BD49;}
	.st6{fill:#FFFFFF;}
</style>
<g>
	<g>
		<path class="st0" d="M170,40.7v1l-4.6,0.5c-4.5,0.4-5.4,1.7-5.4,7.1v25.2c0,12.5-6.8,18.4-17.6,18.4c-8.1,0-14.5-4.8-14.5-13.1
			c0-5.5,3.1-8.7,6.9-8.7c3.3,0,5.6,2.6,5.6,6.4c0,4.6-2.9,7.4-6.6,7.4c-1.3,0-2.6-0.4-3.7-1c1.7,4.7,6.2,6.9,9.9,6.9
			c6.2,0,9.7-4.8,9.7-14.3V49.4c0-5.4-1-6.7-5.4-7.1l-5-0.5v-1H170V40.7z"/>
		<path class="st0" d="M172,91.1l4.6-0.5c4.6-0.5,5.4-1.7,5.4-7.1V49.4c0-5.4-0.8-6.7-5.4-7.1l-4.6-0.5v-1h30.2v1l-4.6,0.5
			c-4.3,0.4-5.4,1.7-5.4,7.1v34.1c0,5.4,0.8,6.6,5.4,7.1l4.6,0.5v1H172V91.1z"/>
		<path class="st0" d="M251.2,63.4l-1,0.1l-3.4-9.8c-3.4-10.2-5.7-11.6-14.3-11.6H225V66h2.8c5.8,0,7.2-1.8,9.5-10.1l1.2-4h1v29.9
			h-1l-1.2-4c-2.2-8.1-3.7-10.1-9.5-10.1H225v15.9c0,5.4,0.8,6.7,5.3,7.1l5.1,0.5v1h-30.7v-1l4.6-0.5c4.6-0.5,5.4-1.7,5.4-7.1V49.4
			c0-5.4-0.9-6.7-5.4-7.1l-4.5-0.5v-1h45.1L251.2,63.4z"/>
		<path class="st0" d="M302.8,91.1v1h-30.2v-1l5.2-0.5c4.6-0.4,5.4-1.7,3.4-7.4l-2.4-7h-16l-1.2,3.3c-2.9,7.9-1.3,10.1,4.4,10.9
			l4.5,0.7v1h-25.3v-1l3.4-0.6c6.2-1.2,8.2-3.2,11.5-11.7l14.5-38.9h1.4l15.7,43.3c2.1,5.6,3.2,6.8,7.6,7.4L302.8,91.1z M278.4,74.6
			l-3.3-9.7c-1.7-5.1-2.8-8.5-3.7-12.2l-7.9,21.9H278.4z"/>
	</g>
</g>
<g>
	<g>
		<path class="st1" d="M60,12c-0.3,0.4-0.5,0.8-0.8,1.1c-7.6,6.7-15.1,13.4-22.7,20.1c-0.1,0.1-0.2,0.1-0.5,0.2c-4-2.8-8-5.7-12-8.6
			c-1.1-0.8-0.6-1.6,0.2-2.1c2.8-1.9,5.7-3.7,8.6-5.5C39,13.3,45.2,9.5,51.4,5.7c0.4-0.2,0.8-0.6,1.1-0.9c1.5-0.6,2.9-0.5,4.1,0.6
			c1.2,1.1,1.1,2.4,0.5,3.8c-0.5,1.1-0.1,1.7,0.9,2C58.8,11.5,59.4,11.8,60,12z"/>
		<path class="st0" d="M31.7,65.2C26,66,22,67,22,64c0-3.5,0-12,0-16c0.4-0.1,3.7-1.8,4-2c0,0,8.3-4.1,9.4-4.4
			C41,39,39,39,43.2,42.5c3.1,2.6,6.5,4.8,10,7.3C50,52.1,47,54.2,44,56.3c-3.7,2.7-7.4,5.4-11.2,8.1C32.5,64.7,32.1,64.9,31.7,65.2
			z"/>
		<path class="st2" d="M52.8,73.9c4.1-2.8,8.2-5.7,12.4-8.5c1.7-1.1,3.4-3,5.1-3c1.6,0,3.3,1.9,4.9,3.1c3.5,2.5,7.1,5.1,11,7.9
			c-3.1,0.8-5.8,1.5-8.4,2.1c-6.4,1.6-12.9,3.2-19.3,4.7c-1.2,0.3-2.6,0.1-3.9,0.1C53,78.5,51.4,76.6,52.8,73.9z"/>
		<path class="st0" d="M120,50.1c1.1,4.1,2.1,8.2,3.3,12.3c0.5,1.5,0.1,2-1.4,2.3c-2.5,0.5-5,1.2-7.5,1.8c-0.5,0.1-1.2-0.1-1.5-0.4
			c-4.1-5.7-8.1-11.5-12.2-17.5c4.6-2,9-3.8,13.5-5.7C116.1,45.2,118,47.7,120,50.1z"/>
		<path class="st0" d="M73.2,14.5c1.4,2.1,2.9,4.2,4.4,6.5c-4.8,2-9.3,3.8-13.9,5.7c-7.4,3-14.7,6-22.1,9c-0.7,0.3-1.4,0.3-2.2,0.4
			c-0.1-0.2-0.2-0.4-0.2-0.6c0.4-0.4,0.7-0.9,1.1-1.2c7-6.2,14-12.4,20.9-18.5c0.7-0.6,1.3-1.3,1.9-1.9c1.4,0.4,2.9,0.7,4.2,1.4
			C69.5,16.4,71.5,17.2,73.2,14.5z"/>
		<path class="st1" d="M111.3,101.6c-6.7,1.3-13.3,2.7-20,3.9c-0.8,0.1-1.7,0.1-2.4-0.2c-4.6-2.5-9.1-5.2-13.7-7.8
			c-0.2-0.1-0.4-0.3-0.7-0.6c3.4-1.6,6.7-3.1,10.1-4.5c0.5-0.2,1.3,0,1.9,0.2c8.9,2.5,17.8,5,26.7,7.5
			C112.6,100.5,111.9,101.1,111.3,101.6z"/>
		<path class="st2" d="M106,32.1c-0.1,0.3-0.2,0.6-0.4,0.8c-3.4,2.5-6.9,4.9-10.5,7.5c-2.5-3.6-4.9-7.1-7.5-10.8
			c4.1-2.9,8.2-5.8,12.2-8.6l0.1,0.1C100.3,25.7,103.2,28.9,106,32.1z"/>
		<path class="st1" d="M38.4,64.4c4.6-3.3,9.3-6.7,14-10c1.2-0.9,2.5-2.3,3.7-2.3s2.5,1.5,3.7,2.3c2.1,1.5,4.1,3,6.4,4.6
			c-4,1.7-7.7,3.3-11.4,4.9c-3.6,0.2-7.2,0.4-10.9,0.6C42.1,64.5,40.2,64.4,38.4,64.4z"/>
		<path class="st3" d="M92.2,129.2c-2.8,0.5-4.7-1.1-6.6-2.8c-1.3-1.2-2.8-2.4-4.4-3.8c2.7-1.1,5.2-2.2,7.7-3.2
			c2.7-1.2,5.5-2.2,8.2-3.5c1.5-0.7,2.8-0.9,4.1,0.3c0.2,0.2,0.6,0.3,1,0.4c-0.1,0.3-0.1,0.6-0.3,0.8
			C98.7,121.3,95.5,125.2,92.2,129.2z"/>
		<path class="st1" d="M113.7,96.8c-5.2-1.4-10.4-2.8-15.6-4.2c-2.8-0.8-5.5-1.6-8.7-2.5c1.3-0.6,2.2-1.1,3.2-1.5
			c1.7-0.8,3.5-1.3,5-2.4c2.9-2,5.1-1.3,7.6,0.8c2.5,2.2,5.4,3.9,8.1,5.9C113.5,94.2,113.6,95.5,113.7,96.8z"/>
		<path class="st3" d="M57.6,84.9c0.2-0.1,0.5-0.4,0.7-0.3c7.1,2,14.2,4,21.9,6.1c-3.3,1.5-6.1,2.8-8.9,4c-0.4,0.2-1-0.1-1.5-0.4
			c-2.9-1.6-5.7-3.2-8.6-4.8C60.1,88.1,58.9,86.5,57.6,84.9z"/>
		<path class="st3" d="M39,5.2c-2.3,2.1-4.6,4.3-6.9,6.4c-2.7,2.4-5.4,4.8-8.2,7.3c0-3.1,0-6,0-8.9c2.7-3.3,6.1-4.8,10.3-4.6
			C35.8,5.4,37.4,5.2,39,5.2z"/>
		<path class="st3" d="M130,62.8c-3.1,0.3-3.1,0.3-3.9-2.8c-0.8-3-1.6-6.1-2.5-9.1c2-0.2,4-0.3,5.9-0.5c1.2,1.8,2.5,3.7,3.7,5.5
			C132.1,58.2,131.1,60.5,130,62.8z"/>
		<path class="st4" d="M11.7,19.8c1.6,1.2,3.1,2.4,5,3.7c-4.3,2.7-8.4,5.2-12.7,7.9c-0.6-1.4-1.1-2.5-1.6-3.6
			c0.1-0.3,0.1-0.6,0.3-0.8C5.6,24.6,8.6,22.2,11.7,19.8z"/>
		<path class="st1" d="M112.3,40.4c-3.7,1.5-7.4,2.9-11.1,4.4c-2.6,1.1-2.6,1.1-4-1.9c3.6-2.6,7.3-5.3,10.9-7.9
			C109.4,36.8,110.9,38.6,112.3,40.4z"/>
		<path class="st1" d="M63.1,114.4c2.3-0.9,3.9,0.3,5.5,1.8c2,1.8,4.2,3.6,6.6,5.6c-2.8,1.1-5.3,2.1-7.8,3
			C66,121.3,64.6,117.9,63.1,114.4z"/>
		<path class="st4" d="M99,17.8c-4.4,3-8.7,6-13.2,9.1c-1-1.4-2-2.8-3.1-4.4c5.2-2.2,10.3-4.4,15.4-6.5C98.3,16.5,98.7,17.2,99,17.8
			z"/>
		<path class="st3" d="M92.9,14.6c-4,1.7-8,3.4-12.1,5.2c-1.8-2.5-3.5-4.9-5.2-7.4c0.8,0,1.8-0.4,2.4-0.1c4.5,2.2,9.4,2.2,14.2,2.2
			C92.4,14.5,92.7,14.6,92.9,14.6z"/>
		<path class="st5" d="M68.9,127.7c2.6-1.1,5.2-2.2,7.8-3.1c0.6-0.2,1.6-0.1,2.2,0.3c1.6,1.2,3.1,2.5,5.1,4.2c-5.2,0-10,0-14.7,0
			C69.1,128.6,69,128.1,68.9,127.7z"/>
		<path class="st3" d="M112.7,88.4c-2.5-1.7-5-3.4-7.9-5.4c2.7-1.1,4.9-2.1,7.2-3C112.2,82.7,112.5,85.5,112.7,88.4z"/>
		<path class="st2" d="M20.6,12.5c-0.2,3-0.4,6.1-0.6,9.5c-2.3-1.6-4.1-2.9-6-4.2C16.3,16,18.5,14.3,20.6,12.5z"/>
		<path class="st4" d="M102.8,110.4c-0.1,0-0.3,0-0.4,0c-3.4,2.2-5.5-0.7-8.1-2.3c3.4-0.7,6.7-1.3,10.1-2
			C102.9,107.1,103.4,109,102.8,110.4z"/>
		<path class="st2" d="M117.7,73.3c-0.8-1.2-1.5-2.4-2.4-3.8c3-0.7,5.7-1.4,8.5-2.1c0.3-0.1,0.6,0.2,0.9,0.3
			C122.4,69.6,120.1,71.4,117.7,73.3z"/>
		<path class="st4" d="M62,93.5c1.7,1,3.4,2,5.4,3.2c-3,1.3-5.6,2.5-8.3,3.6C60.1,98.1,61,95.8,62,93.5z"/>
		<path class="st4" d="M18.9,54.5C19,58,20.3,60.8,19,64c-0.2-0.2-4.3-0.4-4.4-0.6c-0.3-1-0.4-2.1-0.9-3c-0.8-1.5-0.4-2.3,0.9-3.3
			s2.5-2.2,3.7-3.3C18.5,54.1,18.7,54.3,18.9,54.5z"/>
		<path class="st4" d="M54.5,67.1c1.2-0.4,2.4-0.8,3.6-1.2c0.1,0.1,0.2,0.3,0.2,0.4c-1.5,1-2.9,1.9-4.4,2.9
			C54.2,68.5,54.4,67.8,54.5,67.1z"/>
		<path class="st4" d="M46.4,4.6C45,5.7,43.6,6.9,42.2,8c-0.1-0.2-0.3-0.3-0.4-0.5c0.8-0.8,1.5-1.6,2.3-2.4
			C44.8,4.9,45.6,4.8,46.4,4.6z"/>
		<path class="st1" d="M73.1,59.7c8.1-3.3,16.1-6.6,24.4-10c4.1,5.8,8.1,11.7,12.4,17.8c-2,0.5-3.8,1-5.6,1.4
			C100,70,95.7,71,91.4,72.1c-0.6,0.1-1.4,0.1-1.8-0.2c-5.4-3.8-10.8-7.7-16.2-11.6C73.3,60.2,73.3,60.1,73.1,59.7z"/>
		<path class="st3" d="M58.8,49.8c8.9-6.2,17.4-12.2,26.1-18.4c2.5,3.7,5,7.2,7.5,10.8c-5.1,3.6-10.1,7.1-15.1,10.6
			c-2,1.4-4,2.8-6.1,4.1c-1,0.7-1.8,0.5-2.7-0.2C65.4,54.5,62.2,52.3,58.8,49.8z"/>
		<path class="st1" d="M43.1,38.5c4.4-1.8,8.4-3.4,12.4-5.1c7.4-3,14.7-6,22.1-9.1c1.4-0.6,2.3-0.6,3,0.9c0.6,1.2,1.5,2.3,2.4,3.6
			c-2.5,1.8-4.9,3.5-7.3,5.2c-6.1,4.3-12.2,8.6-18.4,12.9c-0.5,0.4-1.7,0.6-2.1,0.2C51.2,44.4,47.3,41.6,43.1,38.5z"/>
		<path class="st0" d="M63.2,82.3c8.4-2.1,16.8-4.2,25.2-6.2c0.5-0.1,1.2-0.1,1.5,0.1c2.8,1.9,5.5,3.9,8.6,6.2
			c-2.8,1.3-5.5,2.3-8,3.8c-4.1,2.5-8,2.6-12.4,0.9c-4.4-1.6-9-2.6-13.4-3.9c-0.6-0.2-1.1-0.4-1.6-0.5
			C63.2,82.5,63.2,82.4,63.2,82.3z"/>
		<path class="st0" d="M19.9,26.7c-0.3,6-0.5,11.5-0.8,16.9c0,0.5-0.4,1.4-0.9,1.6c-2.8,1.2-5.6,2.4-8.5,3.6
			c-1.1-3.2-2.2-6.1-3.1-9.1c-0.1-0.4,0-1.1,0.3-1.4C11.1,34.4,15.4,30.7,19.9,26.7z"/>
		<path class="st2" d="M59.1,104c3.9-1.8,7.4-3.4,11-5c0.3-0.1,0.9-0.2,1.2,0c4.5,2.5,8.9,5.1,13.7,7.9c-1.9,0.4-3.3,0.7-4.7,1
			c-4,0.8-8.1,1.6-12.1,2.4c-0.5,0.1-1.3,0.2-1.7-0.1C64.1,108.2,61.7,106.2,59.1,104z"/>
		<path class="st0" d="M95.9,113c-4.7,2-9.1,3.5-13.2,5.6c-3,1.5-5.2,1.4-7.5-1.1c-1.4-1.6-3.2-2.8-5.2-4.5c3.4-0.7,6.3-1.3,9.3-1.9
			c2.7-0.6,5.4-1.2,8.1-1.6c1-0.1,2.2,0,3.2,0.5C92.3,110.8,93.8,111.9,95.9,113z"/>
		<path class="st4" d="M93.6,74.8c4.4-1.1,8.4-2.1,12.3-3.1c0.5-0.1,1-0.3,1.6-0.4c4.8-1.2,4.8-1.2,7.3,3.6
			c-2.5,1.2-5.1,2.4-7.6,3.5c-0.4,0.2-0.9,0.3-1.3,0.6c-2.7,2-5,1.6-7.4-0.6C97.2,77.1,95.5,76.2,93.6,74.8z"/>
		<path class="st3" d="M23.2,28.3c3.7,2.6,6.9,5,10.5,7.5c-3.6,2.9-6.2,6.6-11.2,7.5C22.7,38.4,23,33.5,23.2,28.3z"/>
		<path class="st1" d="M11.9,55.2c-0.4-1.4-0.7-2.3-1.1-3.4c2.7-1.1,5.2-2.1,7.8-3.2c0.1,0.1,0.2,0.3,0.3,0.4
			C16.6,51,14.4,52.9,11.9,55.2z"/>
		<path class="st4" d="M95.7,47.1c-3.1,1.3-6,2.4-8.8,3.6c-0.1-0.1-0.1-0.3-0.2-0.4c2.5-1.7,4.9-3.5,7.5-5.3
			C94.7,45.7,95.1,46.3,95.7,47.1z"/>
	</g>
	<polygon class="st4" points="70,132.5 90.5,132.5 79.8,133.3 71,133.3 	"/>
</g>
<g>
	<rect x="48" y="92" class="st6" width="70" height="21"/>
</g>
<g>
	<path class="st0" d="M66.2,104.8v5.1H63V96.1h4.5c1,0,1.9,0.1,2.6,0.3c0.7,0.2,1.3,0.5,1.7,0.9c0.4,0.4,0.8,0.8,1,1.3
		c0.2,0.5,0.3,1,0.3,1.6c0,0.4-0.1,0.9-0.2,1.3c-0.1,0.4-0.3,0.8-0.5,1.1c-0.2,0.3-0.5,0.6-0.9,0.9c-0.3,0.3-0.7,0.5-1.2,0.7
		c0.2,0.1,0.4,0.2,0.6,0.4c0.2,0.2,0.3,0.4,0.5,0.6l2.9,4.8h-2.9c-0.5,0-0.9-0.2-1.2-0.6l-2.3-4c-0.1-0.2-0.2-0.3-0.4-0.4
		c-0.1-0.1-0.3-0.1-0.6-0.1H66.2z M66.2,102.6h1.3c0.4,0,0.8-0.1,1.1-0.2c0.3-0.1,0.6-0.3,0.8-0.5s0.3-0.4,0.4-0.7s0.1-0.5,0.1-0.9
		c0-0.6-0.2-1.1-0.6-1.4c-0.4-0.3-1-0.5-1.8-0.5h-1.3V102.6z"/>
	<path class="st0" d="M84.6,96.1v2.5h-5.7v3.2h4.4v2.4h-4.4v3.3h5.7v2.5h-8.9V96.1H84.6z"/>
	<path class="st0" d="M94.1,98.9c-0.1,0.2-0.2,0.3-0.3,0.3s-0.2,0.1-0.4,0.1c-0.1,0-0.3,0-0.5-0.1s-0.4-0.2-0.6-0.3
		c-0.2-0.1-0.5-0.2-0.7-0.3c-0.3-0.1-0.6-0.1-0.9-0.1c-0.6,0-1,0.1-1.3,0.4c-0.3,0.3-0.4,0.6-0.4,1c0,0.3,0.1,0.5,0.3,0.7
		s0.4,0.3,0.7,0.5c0.3,0.1,0.6,0.3,1,0.4c0.4,0.1,0.7,0.2,1.1,0.4c0.4,0.1,0.8,0.3,1.1,0.5s0.7,0.4,1,0.7c0.3,0.3,0.5,0.6,0.7,1
		c0.2,0.4,0.3,0.9,0.3,1.5c0,0.6-0.1,1.2-0.3,1.8c-0.2,0.6-0.5,1-1,1.5c-0.4,0.4-0.9,0.7-1.6,1s-1.3,0.4-2.1,0.4
		c-0.4,0-0.9,0-1.3-0.1c-0.4-0.1-0.9-0.2-1.3-0.4c-0.4-0.2-0.8-0.4-1.2-0.6c-0.4-0.2-0.7-0.5-1-0.7l1-1.5c0.1-0.1,0.2-0.2,0.3-0.3
		c0.1-0.1,0.3-0.1,0.4-0.1c0.2,0,0.4,0.1,0.6,0.2c0.2,0.1,0.4,0.3,0.7,0.4s0.5,0.3,0.8,0.4s0.7,0.2,1.1,0.2c0.6,0,1-0.1,1.4-0.4
		c0.3-0.3,0.5-0.7,0.5-1.2c0-0.3-0.1-0.6-0.3-0.8c-0.2-0.2-0.4-0.4-0.7-0.5c-0.3-0.1-0.6-0.3-1-0.4c-0.4-0.1-0.7-0.2-1.1-0.3
		c-0.4-0.1-0.8-0.3-1.1-0.5s-0.7-0.4-1-0.7c-0.3-0.3-0.5-0.7-0.7-1.1c-0.2-0.4-0.3-1-0.3-1.6c0-0.5,0.1-1,0.3-1.5
		c0.2-0.5,0.5-0.9,0.9-1.3c0.4-0.4,0.9-0.7,1.5-0.9s1.3-0.3,2-0.3c0.4,0,0.8,0,1.2,0.1c0.4,0.1,0.8,0.2,1.1,0.3
		c0.4,0.1,0.7,0.3,1,0.5s0.6,0.4,0.8,0.6L94.1,98.9z"/>
	<path class="st0" d="M105.6,96.1v2.5h-5.7v3.2h4.4v2.4h-4.4v3.3h5.7v2.5h-8.9V96.1H105.6z"/>
	<path class="st0" d="M120.3,110h-2.5c-0.3,0-0.5-0.1-0.7-0.2s-0.3-0.3-0.4-0.5l-0.8-2.4h-5.3l-0.8,2.4c-0.1,0.2-0.2,0.3-0.4,0.5
		c-0.2,0.1-0.4,0.2-0.7,0.2h-2.5l5.4-13.8h3.3L120.3,110z M111.4,104.7h3.8l-1.3-3.8c-0.1-0.2-0.2-0.5-0.3-0.9s-0.2-0.7-0.3-1.1
		c-0.1,0.4-0.2,0.7-0.3,1.1c-0.1,0.3-0.2,0.6-0.3,0.9L111.4,104.7z"/>
	<path class="st0" d="M124.6,104.8v5.1h-3.2V96.1h4.5c1,0,1.9,0.1,2.6,0.3c0.7,0.2,1.3,0.5,1.7,0.9c0.4,0.4,0.8,0.8,1,1.3
		c0.2,0.5,0.3,1,0.3,1.6c0,0.4-0.1,0.9-0.2,1.3c-0.1,0.4-0.3,0.8-0.5,1.1c-0.2,0.3-0.5,0.6-0.9,0.9c-0.3,0.3-0.7,0.5-1.2,0.7
		c0.2,0.1,0.4,0.2,0.6,0.4c0.2,0.2,0.3,0.4,0.5,0.6l2.9,4.8h-2.9c-0.5,0-0.9-0.2-1.2-0.6l-2.3-4c-0.1-0.2-0.2-0.3-0.4-0.4
		c-0.1-0.1-0.3-0.1-0.6-0.1H124.6z M124.6,102.6h1.3c0.4,0,0.8-0.1,1.1-0.2c0.3-0.1,0.6-0.3,0.8-0.5s0.3-0.4,0.4-0.7
		s0.1-0.5,0.1-0.9c0-0.6-0.2-1.1-0.6-1.4c-0.4-0.3-1-0.5-1.8-0.5h-1.3V102.6z"/>
	<path class="st0" d="M142.9,106.4c0.1,0,0.2,0,0.2,0c0.1,0,0.1,0.1,0.2,0.1l1.3,1.3c-0.6,0.7-1.3,1.3-2.1,1.6
		c-0.8,0.4-1.8,0.6-3,0.6c-1.1,0-2-0.2-2.8-0.5c-0.8-0.4-1.5-0.9-2.1-1.5c-0.6-0.6-1-1.4-1.3-2.2c-0.3-0.9-0.5-1.8-0.5-2.8
		c0-1,0.2-2,0.5-2.8c0.4-0.9,0.9-1.6,1.5-2.2c0.6-0.6,1.4-1.1,2.3-1.5C138,96.1,139,96,140,96c0.5,0,1,0,1.5,0.1
		c0.5,0.1,0.9,0.2,1.3,0.4c0.4,0.2,0.8,0.4,1.1,0.6c0.3,0.2,0.6,0.5,0.9,0.7l-1.1,1.5c-0.1,0.1-0.2,0.2-0.2,0.2
		c-0.1,0.1-0.2,0.1-0.4,0.1c-0.1,0-0.2,0-0.3-0.1c-0.1,0-0.2-0.1-0.3-0.2c-0.1-0.1-0.2-0.2-0.4-0.2c-0.1-0.1-0.3-0.2-0.5-0.2
		c-0.2-0.1-0.4-0.1-0.7-0.2c-0.3-0.1-0.5-0.1-0.9-0.1c-0.6,0-1.1,0.1-1.6,0.3s-0.9,0.5-1.2,0.9c-0.3,0.4-0.6,0.8-0.8,1.4
		c-0.2,0.5-0.3,1.2-0.3,1.8c0,0.7,0.1,1.3,0.3,1.9c0.2,0.6,0.5,1,0.8,1.4c0.3,0.4,0.7,0.7,1.2,0.9s0.9,0.3,1.4,0.3
		c0.3,0,0.6,0,0.8,0c0.2,0,0.5-0.1,0.7-0.1c0.2-0.1,0.4-0.2,0.6-0.3c0.2-0.1,0.4-0.2,0.6-0.4c0.1-0.1,0.2-0.1,0.2-0.2
		C142.7,106.4,142.8,106.4,142.9,106.4z"/>
	<path class="st0" d="M158.2,110h-3.2v-5.9h-5.6v5.9h-3.2V96.1h3.2v5.8h5.6v-5.8h3.2V110z"/>
	<path class="st0" d="M169.3,96.1v2.5h-5.7v3.2h4.4v2.4h-4.4v3.3h5.7v2.5h-8.9V96.1H169.3z"/>
	<path class="st0" d="M174.4,104.8v5.1h-3.2V96.1h4.5c1,0,1.9,0.1,2.6,0.3c0.7,0.2,1.3,0.5,1.7,0.9c0.4,0.4,0.8,0.8,1,1.3
		c0.2,0.5,0.3,1,0.3,1.6c0,0.4-0.1,0.9-0.2,1.3c-0.1,0.4-0.3,0.8-0.5,1.1c-0.2,0.3-0.5,0.6-0.9,0.9c-0.3,0.3-0.7,0.5-1.2,0.7
		c0.2,0.1,0.4,0.2,0.6,0.4c0.2,0.2,0.4,0.4,0.5,0.6l2.9,4.8h-2.9c-0.5,0-0.9-0.2-1.2-0.6l-2.3-4c-0.1-0.2-0.2-0.3-0.4-0.4
		c-0.1-0.1-0.3-0.1-0.6-0.1H174.4z M174.4,102.6h1.3c0.4,0,0.8-0.1,1.1-0.2c0.3-0.1,0.6-0.3,0.8-0.5s0.3-0.4,0.4-0.7
		c0.1-0.3,0.1-0.5,0.1-0.9c0-0.6-0.2-1.1-0.6-1.4c-0.4-0.3-1-0.5-1.8-0.5h-1.3V102.6z"/>
	<path class="st0" d="M185.9,95.2c0.3,0.4,0.4,0.8,0.6,1.2c0.1,0.4,0.2,0.8,0.2,1.2c0,0.7-0.2,1.3-0.5,1.9s-0.9,1.2-1.6,1.7
		l-0.9-0.6c-0.1,0-0.1-0.1-0.2-0.2c0-0.1-0.1-0.1-0.1-0.2c0-0.1,0-0.1,0-0.2c0-0.1,0.1-0.1,0.1-0.2c0.1-0.1,0.1-0.2,0.2-0.3
		c0.1-0.1,0.2-0.2,0.2-0.4c0.1-0.1,0.1-0.3,0.2-0.5s0.1-0.4,0.1-0.6c0-0.2,0-0.5-0.1-0.7s-0.2-0.5-0.4-0.8c-0.1-0.1-0.1-0.2-0.1-0.3
		c0-0.1,0-0.2,0.1-0.3c0.1-0.1,0.2-0.2,0.3-0.2L185.9,95.2z"/>
	<path class="st0" d="M196,98.9c-0.1,0.2-0.2,0.3-0.3,0.3s-0.2,0.1-0.4,0.1c-0.1,0-0.3,0-0.5-0.1s-0.4-0.2-0.6-0.3
		c-0.2-0.1-0.5-0.2-0.7-0.3s-0.6-0.1-0.9-0.1c-0.6,0-1,0.1-1.3,0.4c-0.3,0.3-0.4,0.6-0.4,1c0,0.3,0.1,0.5,0.3,0.7
		c0.2,0.2,0.4,0.3,0.7,0.5s0.6,0.3,1,0.4c0.4,0.1,0.7,0.2,1.1,0.4c0.4,0.1,0.8,0.3,1.1,0.5s0.7,0.4,1,0.7s0.5,0.6,0.7,1
		c0.2,0.4,0.3,0.9,0.3,1.5c0,0.6-0.1,1.2-0.3,1.8c-0.2,0.6-0.5,1-1,1.5c-0.4,0.4-0.9,0.7-1.6,1s-1.3,0.4-2.1,0.4
		c-0.4,0-0.9,0-1.3-0.1c-0.4-0.1-0.9-0.2-1.3-0.4c-0.4-0.2-0.8-0.4-1.2-0.6s-0.7-0.5-1-0.7l1-1.5c0.1-0.1,0.2-0.2,0.3-0.3
		c0.1-0.1,0.3-0.1,0.4-0.1c0.2,0,0.4,0.1,0.6,0.2c0.2,0.1,0.4,0.3,0.7,0.4c0.2,0.1,0.5,0.3,0.8,0.4c0.3,0.1,0.7,0.2,1.1,0.2
		c0.6,0,1-0.1,1.4-0.4c0.3-0.3,0.5-0.7,0.5-1.2c0-0.3-0.1-0.6-0.3-0.8c-0.2-0.2-0.4-0.4-0.7-0.5c-0.3-0.1-0.6-0.3-1-0.4
		c-0.4-0.1-0.7-0.2-1.1-0.3c-0.4-0.1-0.8-0.3-1.1-0.5s-0.7-0.4-1-0.7c-0.3-0.3-0.5-0.7-0.7-1.1c-0.2-0.4-0.3-1-0.3-1.6
		c0-0.5,0.1-1,0.3-1.5c0.2-0.5,0.5-0.9,0.9-1.3c0.4-0.4,0.9-0.7,1.5-0.9s1.3-0.3,2-0.3c0.4,0,0.8,0,1.2,0.1c0.4,0.1,0.8,0.2,1.1,0.3
		c0.4,0.1,0.7,0.3,1,0.5s0.6,0.4,0.8,0.6L196,98.9z"/>
	<path class="st0" d="M205.5,105.3v4.6h-3.2V96.1h4.9c1,0,1.8,0.1,2.5,0.3c0.7,0.2,1.3,0.5,1.7,1s0.8,0.9,1,1.4
		c0.2,0.6,0.3,1.1,0.3,1.8c0,0.7-0.1,1.3-0.3,1.9c-0.2,0.6-0.6,1.1-1,1.5c-0.5,0.4-1,0.7-1.7,1c-0.7,0.2-1.5,0.3-2.5,0.3H205.5z
		 M205.5,102.9h1.7c0.8,0,1.4-0.2,1.8-0.6s0.6-1,0.6-1.7c0-0.3,0-0.6-0.1-0.9s-0.2-0.5-0.4-0.7c-0.2-0.2-0.4-0.3-0.7-0.4
		c-0.3-0.1-0.6-0.2-1-0.2h-1.7V102.9z"/>
	<path class="st0" d="M217.6,107.4h5.1v2.6h-8.3V96.1h3.2V107.4z"/>
	<path class="st0" d="M237.1,110h-2.5c-0.3,0-0.5-0.1-0.7-0.2c-0.2-0.1-0.3-0.3-0.4-0.5l-0.8-2.4h-5.3l-0.8,2.4
		c-0.1,0.2-0.2,0.3-0.4,0.5s-0.4,0.2-0.7,0.2h-2.5l5.4-13.8h3.3L237.1,110z M228.2,104.7h3.8l-1.3-3.8c-0.1-0.2-0.2-0.5-0.3-0.9
		c-0.1-0.3-0.2-0.7-0.3-1.1c-0.1,0.4-0.2,0.7-0.3,1.1s-0.2,0.6-0.3,0.9L228.2,104.7z"/>
	<path class="st0" d="M246.8,96.1v2.5h-3.9V110h-3.2V98.7h-3.9v-2.5H246.8z"/>
	<path class="st0" d="M257,96.1v2.5h-5.7v3.5h4.7v2.5h-4.7v5.4h-3.2V96.1H257z"/>
	<path class="st0" d="M272.3,103c0,1-0.2,1.9-0.5,2.8c-0.3,0.9-0.8,1.6-1.5,2.2s-1.4,1.1-2.3,1.5c-0.9,0.4-1.9,0.5-2.9,0.5
		c-1.1,0-2.1-0.2-2.9-0.5s-1.6-0.9-2.3-1.5c-0.6-0.6-1.1-1.4-1.5-2.2c-0.3-0.9-0.5-1.8-0.5-2.8c0-1,0.2-1.9,0.5-2.8
		c0.3-0.9,0.8-1.6,1.5-2.2c0.6-0.6,1.4-1.1,2.3-1.5s1.9-0.5,2.9-0.5c1.1,0,2.1,0.2,2.9,0.5c0.9,0.4,1.6,0.9,2.3,1.5
		c0.6,0.6,1.1,1.4,1.5,2.2C272.2,101.1,272.3,102,272.3,103z M269.1,103c0-0.7-0.1-1.3-0.3-1.8c-0.2-0.5-0.4-1-0.8-1.4
		c-0.3-0.4-0.7-0.7-1.2-0.9c-0.5-0.2-1-0.3-1.6-0.3c-0.6,0-1.2,0.1-1.7,0.3c-0.5,0.2-0.9,0.5-1.2,0.9c-0.3,0.4-0.6,0.8-0.8,1.4
		c-0.2,0.5-0.3,1.2-0.3,1.8c0,0.7,0.1,1.3,0.3,1.9c0.2,0.5,0.4,1,0.8,1.4c0.3,0.4,0.7,0.7,1.2,0.9c0.5,0.2,1,0.3,1.7,0.3
		c0.6,0,1.2-0.1,1.6-0.3c0.5-0.2,0.9-0.5,1.2-0.9c0.3-0.4,0.6-0.8,0.8-1.4C269,104.3,269.1,103.7,269.1,103z"/>
	<path class="st0" d="M277.1,104.8v5.1h-3.2V96.1h4.5c1,0,1.9,0.1,2.6,0.3c0.7,0.2,1.3,0.5,1.7,0.9c0.4,0.4,0.8,0.8,1,1.3
		c0.2,0.5,0.3,1,0.3,1.6c0,0.4-0.1,0.9-0.2,1.3c-0.1,0.4-0.3,0.8-0.5,1.1c-0.2,0.3-0.5,0.6-0.9,0.9c-0.3,0.3-0.7,0.5-1.2,0.7
		c0.2,0.1,0.4,0.2,0.6,0.4c0.2,0.2,0.4,0.4,0.5,0.6l2.9,4.8h-2.9c-0.5,0-0.9-0.2-1.2-0.6l-2.3-4c-0.1-0.2-0.2-0.3-0.4-0.4
		c-0.1-0.1-0.3-0.1-0.6-0.1H277.1z M277.1,102.6h1.3c0.4,0,0.8-0.1,1.1-0.2c0.3-0.1,0.6-0.3,0.8-0.5s0.3-0.4,0.4-0.7
		c0.1-0.3,0.1-0.5,0.1-0.9c0-0.6-0.2-1.1-0.6-1.4c-0.4-0.3-1-0.5-1.8-0.5h-1.3V102.6z"/>
	<path class="st0" d="M294,104.4c0.1,0.3,0.2,0.5,0.3,0.8c0.1-0.3,0.2-0.5,0.3-0.8c0.1-0.3,0.2-0.5,0.4-0.8l3.6-7
		c0.1-0.1,0.1-0.2,0.2-0.3s0.1-0.1,0.2-0.1c0.1,0,0.2,0,0.3,0s0.2,0,0.4,0h2.5V110h-2.8v-8c0-0.4,0-0.8,0.1-1.3l-3.7,7.1
		c-0.1,0.2-0.3,0.4-0.5,0.5c-0.2,0.1-0.4,0.2-0.7,0.2h-0.4c-0.2,0-0.5-0.1-0.7-0.2c-0.2-0.1-0.3-0.3-0.5-0.5l-3.7-7.1
		c0,0.2,0,0.4,0.1,0.7s0,0.4,0,0.6v8h-2.8V96.1h2.5c0.1,0,0.3,0,0.4,0s0.2,0,0.3,0c0.1,0,0.2,0.1,0.2,0.1s0.1,0.2,0.2,0.3l3.6,7
		C293.7,103.9,293.8,104.1,294,104.4z"/>
</g>
</svg>
