<?xml version="1.0" encoding="utf-8"?>
<!-- Generator: Adobe Illustrator 25.1.0, SVG Export Plug-In . SVG Version: 6.00 Build 0)  -->
<svg version="1.1" id="Layer_1" xmlns="http://www.w3.org/2000/svg" xmlns:xlink="http://www.w3.org/1999/xlink" x="0px" y="0px"
	 viewBox="0 0 500 500" style="enable-background:new 0 0 500 500;" xml:space="preserve">
<style type="text/css">
	.st0{fill:#FFFFFF;}
	.st1{fill:#FFFFFF;stroke:#000000;stroke-width:10;stroke-miterlimit:10;}
</style>
<g>
	<path class="st0" d="M61,496c-30.3,0-55-24.7-55-55V63C6,32.7,30.7,8,61,8h378c30.3,0,55,24.7,55,55v378c0,30.3-24.7,55-55,55H61z"
		/>
	<path d="M439,13c27.6,0,50,22.4,50,50v378c0,27.6-22.4,50-50,50H61c-27.6,0-50-22.4-50-50V63c0-27.6,22.4-50,50-50H439 M439,3H61
		C27.9,3,1,29.9,1,63v378c0,33.1,26.9,60,60,60h378c33.1,0,60-26.9,60-60V63C499,29.9,472.1,3,439,3L439,3z"/>
</g>
<path d="M401.5,81.5c0,0.1,0,0.3-0.1,0.5C401.4,81.9,401.5,81.7,401.5,81.5z"/>
<path d="M457.7,234.2c-3.1-2-9.6-1.9-8-20.6l4.5-4.8c9.1-9.5,5.1-20.6-8.4-23.5l-172-36c-10.8-2.3-24.1,1.6-31.6,9.2L86.7,315.8
	c-3.8,3.8-5.5,7.9-5.2,11.7l0,0l0.5,40.9c0,6.3,4.4,11.8,10.6,13.2l182.3,36.9c11.5,2.5,23.5-1.2,31.6-9.8L456.3,246
	c1.6-1.7,2.8-3.8,3.5-6.1C460.5,237.7,459.6,235.4,457.7,234.2z M451.5,200.5c0,0.1,0,0.3-0.1,0.5
	C451.4,200.9,451.5,200.7,451.5,200.5z M448.5,238.6C434.6,254,321.3,376,295.3,402.6c-3.3,3.4-8.1,4.8-12.7,3.9l-181.4-38.1
	c-3.6-0.8-6.2-4-6.2-7.7V346c0-5.9,4-5,6-5l1.4,0.2l170.5,34.5c10.9,2.2,24.4-1.8,31.7-9.5l138.3-145.4c-0.5,6,1.5,12,5.8,15
	C449.7,236.3,449.3,237.8,448.5,238.6z"/>
<path d="M401.5,81.5c0,0.1,0,0.3-0.1,0.5C401.4,81.9,401.5,81.7,401.5,81.5z"/>
<g>
	<path class="st0" d="M243.5,190.2l-2.9,3.3c-1.1,1.3-0.7,3.5,0.8,3.8l150.3,33.4c0.7,0.1,1.3-0.1,1.8-0.7l2.6-3.4
		c1-1.3,0.4-3.5-1.1-3.8l-149.6-33.2C244.7,189.4,244,189.6,243.5,190.2z"/>
	<path class="st0" d="M232.2,203l-2.9,3.4c-1.2,1.3-0.7,3.5,0.8,3.9l151.6,33.6c0.7,0.1,1.3-0.1,1.8-0.7l2.6-3.5
		c1-1.4,0.4-3.6-1.1-3.9l-150.9-33.5C233.4,202.2,232.7,202.4,232.2,203z"/>
</g>
</svg>
