<?xml version="1.0" encoding="utf-8"?>
<!-- Generator: Adobe Illustrator 25.1.0, SVG Export Plug-In . SVG Version: 6.00 Build 0)  -->
<svg version="1.1" id="Layer_1" xmlns="http://www.w3.org/2000/svg" xmlns:xlink="http://www.w3.org/1999/xlink" x="0px" y="0px"
	 viewBox="0 0 500 500" style="enable-background:new 0 0 500 500;" xml:space="preserve">
<style type="text/css">
	.st0{fill:#FFFFFF;}
	.st1{fill:#FFFFFF;stroke:#000000;stroke-width:10;stroke-miterlimit:10;}
</style>
<g>
	<path class="st0" d="M61,496c-30.3,0-55-24.7-55-55V63C6,32.7,30.7,8,61,8h378c30.3,0,55,24.7,55,55v378c0,30.3-24.7,55-55,55H61z"
		/>
	<path d="M439,13c27.6,0,50,22.4,50,50v378c0,27.6-22.4,50-50,50H61c-27.6,0-50-22.4-50-50V63c0-27.6,22.4-50,50-50H439 M439,3H61
		C27.9,3,1,29.9,1,63v378c0,33.1,26.9,60,60,60h378c33.1,0,60-26.9,60-60V63C499,29.9,472.1,3,439,3L439,3z"/>
</g>
<path d="M401.5,81.5c0,0.1,0,0.3-0.1,0.5C401.4,81.9,401.5,81.7,401.5,81.5z"/>
<path d="M401.5,81.5c0,0.1,0,0.3-0.1,0.5C401.4,81.9,401.5,81.7,401.5,81.5z"/>
<g>
	<path d="M109.1,410.9L424,387.5c10.1-0.8,18-9.3,18-19.7V126.7c0-10.5-8.2-19.2-18.5-19.7L108.6,92.7c-11-0.5-20.3,8.5-20.3,19.7
		v278.9C88.3,402.7,97.9,411.8,109.1,410.9z"/>
</g>
<g>
	<polygon class="st0" points="240.4,295.1 240.4,201.7 318,244 	"/>
</g>
</svg>
