<?xml version="1.0" encoding="utf-8"?>
<!-- Generator: Adobe Illustrator 25.1.0, SVG Export Plug-In . SVG Version: 6.00 Build 0)  -->
<svg version="1.1" id="Layer_1" xmlns="http://www.w3.org/2000/svg" xmlns:xlink="http://www.w3.org/1999/xlink" x="0px" y="0px"
	 viewBox="0 0 500 500" style="enable-background:new 0 0 500 500;" xml:space="preserve">
<style type="text/css">
	.st0{fill:#FFFFFF;}
	.st1{fill:#FFFFFF;stroke:#000000;stroke-width:10;stroke-miterlimit:10;}
</style>
<g>
	<path class="st0" d="M61,496c-30.3,0-55-24.7-55-55V63C6,32.7,30.7,8,61,8h378c30.3,0,55,24.7,55,55v378c0,30.3-24.7,55-55,55H61z"
		/>
	<path d="M439,13c27.6,0,50,22.4,50,50v378c0,27.6-22.4,50-50,50H61c-27.6,0-50-22.4-50-50V63c0-27.6,22.4-50,50-50H439 M439,3H61
		C27.9,3,1,29.9,1,63v378c0,33.1,26.9,60,60,60h378c33.1,0,60-26.9,60-60V63C499,29.9,472.1,3,439,3L439,3z"/>
</g>
<path d="M401.5,81.5c0,0.1,0,0.3-0.1,0.5C401.4,81.9,401.5,81.7,401.5,81.5z"/>
<path d="M401.5,81.5c0,0.1,0,0.3-0.1,0.5C401.4,81.9,401.5,81.7,401.5,81.5z"/>
<g>
	<path d="M330.1,337.1l-127.8,32.7l-30.9,37.9c-15.9,19.5-44.5,22.4-64,6.5c-19.5-15.9-22.4-44.5-6.5-64l30.9-37.9l6.4-131.7
		c1.4,2.1,3,4.2,4.7,6.5c1.5,1.9,3,3.9,4.7,6l-5.8,119.8l-0.2,3.3l-33,40.4c-12.4,15.2-10.1,37.6,5.1,49.9s37.6,10.1,49.9-5.1
		l33-40.4l3.2-0.8L316,330.3c2.3,1.2,4.6,2.4,6.8,3.4C325.4,335,327.8,336.1,330.1,337.1z"/>
	<path d="M358,330.7c-1.7,2-5.1,2.5-9.9,1.7c-2.7-0.5-5.9-1.4-9.5-2.7c-2.4-0.9-5-1.9-7.7-3.2c-23.9-10.8-60.3-34.8-98.4-65.8
		s-68.9-61.9-84.3-83.1c-1.8-2.4-3.3-4.7-4.7-6.9c-2-3.2-3.6-6.2-4.6-8.8c-1.8-4.5-2-8-0.3-10c8.7-10.7,64.9,20.7,125.4,70.1
		S366.8,320,358,330.7z"/>
</g>
<g>
	<g>
		<path d="M375.9,251.2c-9.1,11.1-51.5-8.5-94.8-43.8s-71-72.9-62-84c1-1.2,2.4-2,4.1-2.5c1.2,2.3,2.5,4.7,4.1,7.3
			c-1,0.1-1.5,0.3-1.7,0.5c-0.6,0.8-0.7,7.5,11.2,23.6c11.3,15.2,28.7,32.8,49,49.4s41,30.1,58.2,38.1c18.2,8.4,24.7,7,25.4,6.2
			c0.2-0.3,0.4-1.1,0.1-2.7c2.9,1,5.6,1.8,8.1,2.4C377.7,247.9,377.1,249.8,375.9,251.2z"/>
	</g>
	<path d="M401.8,232.4c-2.8,3.4-7.9,4.6-14.7,3.9c-2-0.2-4.1-0.5-6.3-1.1c-2.1-0.5-4.4-1.1-6.8-1.9c-20.5-6.6-49-23.3-77.6-46.6
		c-27.9-22.8-49.6-46.8-60.5-65.4c-1.3-2.1-2.4-4.2-3.3-6.2c-1-2.1-1.8-4-2.5-5.9c-2.5-7.2-2.6-13,0.4-16.6c1.4-1.7,3.4-2.9,5.8-3.5
		c1.4,2.7,3,5.5,4.8,8.4c-2.2,0.1-3.3,0.5-3.5,0.9c-0.8,1-1.2,8.7,11.4,26.8c12,17.1,30.8,36.5,53,54.6c22.2,18.1,45,32.7,64.1,41
		c20.2,8.7,27.7,6.8,28.5,5.8c0.2-0.3,0.4-1.2,0.3-2.7c3.1,1.2,6.1,2.3,9,3.1C403.7,229.1,403,230.9,401.8,232.4z"/>
	<path d="M356.6,115C305,72.9,254.5,49.5,243.7,62.8c-2.6,3.2-2.7,8.3-0.5,14.7c0.6,1.8,1.4,3.7,2.3,5.7c0.9,1.9,2,3.9,3.2,6
		c7.1,12.2,19.1,27.1,34.7,42.8c10,10.1,21.5,20.5,34.1,30.8c12.6,10.3,25.1,19.4,37,27.2c17.8,11.7,34.3,20.2,47.4,24.8
		c2.3,0.8,4.4,1.5,6.5,2c2.1,0.6,4.2,1,6.1,1.3c7.6,1.2,13.1,0.3,15.9-3.2C441.2,201.9,408.1,157,356.6,115z M411,208.3
		c-2-0.5-4.4-1.2-7-2.2c-2.4-0.8-5-1.9-7.9-3.1c-1.1-0.5-2.3-1-3.6-1.6c-20.5-9.5-45.1-25.6-69.4-45.4c-24.2-19.8-45-40.7-58.4-58.8
		c-1.1-1.5-2.2-3-3.1-4.4c-1.8-2.6-3.3-5-4.6-7.2c-1.4-2.5-2.6-4.6-3.4-6.5c-2.9-6.4-2.7-9.5-2.2-10.1c0.8-0.9,8.6-2.6,30.2,7.4
		c20.5,9.5,45.1,25.6,69.4,45.4c24.2,19.8,45,40.7,58.4,58.8c14.1,19.2,14.1,27.2,13.3,28.1C422.2,209.4,418.9,210.3,411,208.3z"/>
</g>
</svg>
