<?xml version="1.0" encoding="utf-8"?>
<!-- Generator: Adobe Illustrator 25.1.0, SVG Export Plug-In . SVG Version: 6.00 Build 0)  -->
<svg version="1.1" id="Layer_1" xmlns="http://www.w3.org/2000/svg" xmlns:xlink="http://www.w3.org/1999/xlink" x="0px" y="0px"
	 viewBox="0 0 500 500" style="enable-background:new 0 0 500 500;" xml:space="preserve">
<style type="text/css">
	.st0{fill:#FFFFFF;}
	.st1{fill:#FFFFFF;stroke:#000000;stroke-width:10;stroke-miterlimit:10;}
</style>
<g>
	<path class="st0" d="M61,496c-30.3,0-55-24.7-55-55V63C6,32.7,30.7,8,61,8h378c30.3,0,55,24.7,55,55v378c0,30.3-24.7,55-55,55H61z"
		/>
	<path d="M439,13c27.6,0,50,22.4,50,50v378c0,27.6-22.4,50-50,50H61c-27.6,0-50-22.4-50-50V63c0-27.6,22.4-50,50-50H439 M439,3H61
		C27.9,3,1,29.9,1,63v378c0,33.1,26.9,60,60,60h378c33.1,0,60-26.9,60-60V63C499,29.9,472.1,3,439,3L439,3z"/>
</g>
<path d="M401.5,81.5c0,0.1,0,0.3-0.1,0.5C401.4,81.9,401.5,81.7,401.5,81.5z"/>
<path d="M401.5,81.5c0,0.1,0,0.3-0.1,0.5C401.4,81.9,401.5,81.7,401.5,81.5z"/>
<g>
	<path d="M386.4,95.1l-325.9,170c-7.9,4.5-6,16.4,2.9,18.3l99,20.8l33.9,118.5c0.7,2.5,2.9,4.3,5.5,4.4h0.2c1.8,0,3.4-0.8,4.5-2l0,0
		l68.3-77.8l99.8,67.1c6.1,4.4,14.6,0.8,15.7-6.7l10.9-302.5C402.3,96.9,393.6,91,386.4,95.1z M218.9,392.7l24.6-66.5l21.2,14.3
		L218.9,392.7z M233.8,318c-0.2,0.3-0.3,0.6-0.4,0.9l-0.2,0.4l-30.5,82.4L175.7,307l-0.8-2.8L340,157L233.8,318z"/>
</g>
</svg>
