<svg version="1.1" id="Layer_1" xmlns="http://www.w3.org/2000/svg" xmlns:xlink="http://www.w3.org/1999/xlink" x="0px" y="0px"
	 viewBox="0 0 500 500" style="enable-background:new 0 0 500 500;" xml:space="preserve">
<style type="text/css">
	.st0{fill:#FFFFFF;}
	.st1{fill:#FFFFFF;stroke:#000000;stroke-width:10;stroke-miterlimit:10;}
</style>
<g>
	<path class="st0" d="M61,496c-30.3,0-55-24.7-55-55V63C6,32.7,30.7,8,61,8h378c30.3,0,55,24.7,55,55v378c0,30.3-24.7,55-55,55H61z"
		/>
	<path d="M439,13c27.6,0,50,22.4,50,50v378c0,27.6-22.4,50-50,50H61c-27.6,0-50-22.4-50-50V63c0-27.6,22.4-50,50-50H439 M439,3H61
		C27.9,3,1,29.9,1,63v378c0,33.1,26.9,60,60,60h378c33.1,0,60-26.9,60-60V63C499,29.9,472.1,3,439,3L439,3z"/>
</g>
<path d="M401.5,81.5c0,0.1,0,0.3-0.1,0.5C401.4,81.9,401.5,81.7,401.5,81.5z"/>
<path d="M401.5,81.5c0,0.1,0,0.3-0.1,0.5C401.4,81.9,401.5,81.7,401.5,81.5z"/>
<path d="M379.2,146.4c-0.1-0.5-0.2-0.9-0.4-1.4l0.2,0L379.2,146.4z"/>
<g>
	<path d="M379.2,146.4l0.5,3.5C379.6,148.7,379.5,147.5,379.2,146.4z"/>
</g>
<g>
	<path d="M431.6,373.2l-34.8-234.3l-0.5-3.5c-0.1-0.5-0.2-0.9-0.4-1.4c-3.5-12.4-16.2-21.1-32.3-20.8l-44.8,0.8l-2.5,0.1l-2.5,0
		c0.1-1.1,0.2-2.3,0.2-3.4c0-15.3-10.1-29.5-24.6-32.2c-1.7-0.3-3.3-0.5-5-0.5c-15.8,0-30,13.7-30,33.4c0,1.3,0.1,2.5,0.2,3.7
		c1.4,14.9,11.1,25.5,23,28.2c2,0.5,4.1,0.7,6.2,0.7c1.9,0,3.8-0.2,5.7-0.6c0.5-0.1,1-0.2,1.5-0.4c-0.1,1-0.3,1.9-0.6,2.7v0
		c-0.3,1-0.6,1.9-1,2.8c-1.9,0.3-3.8,0.5-5.6,0.5c-1.5,0-3.1-0.1-4.5-0.3c-15.9-2.2-28.1-15.9-29.7-33.5l-58.6,1l-2.5,0l-2.5,0
		c0.2-1.3,0.3-2.6,0.3-4c0-12.8-8.4-24.8-20.7-27c-1.4-0.3-2.8-0.4-4.2-0.4c-13.3,0-25.2,11.5-25.2,28c0,1.5,0.1,2.9,0.3,4.2
		c1.5,11.8,9.5,20.3,19.1,22.5c1.7,0.4,3.5,0.6,5.2,0.6c1.6,0,3.1-0.2,4.7-0.5c0.6-0.1,1.2-0.3,1.8-0.5c-0.2,1-0.4,1.9-0.6,2.8
		c-0.3,1-0.7,2-1.2,2.8c-1.6,0.3-3.1,0.4-4.7,0.4c-1.1,0-2.2-0.1-3.3-0.2c-13.7-1.6-24.3-13-26-27.9l-30.6,0.5
		c-11.5,0.2-22.4,10.9-24.6,23.9L45.7,320.9c-2.2,13.2,4.7,26.3,15.8,29.3l253.2,70.3c20,5.6,39.2-4.8,42.1-23.4l1.3-8.2l47.5,9.1
		C420.6,401,433.8,388.2,431.6,373.2z M274,124.7c1.6,1.7,3.5,2.9,5.5,3.6c1.3,0.5,2.7,0.7,4.1,0.7c0.9,0,1.7-0.1,2.6-0.3
		c0.8-0.2,1.6-0.4,2.3-0.7c0.4,0.7,0.8,1.4,1.1,2.3c0.3,0.7,0.5,1.5,0.8,2.4c-1,0.4-2.1,0.8-3.2,1c-1.2,0.3-2.4,0.4-3.6,0.4
		c-2,0-4-0.4-5.9-1c-2.7-1-5.2-2.6-7.3-4.9c-3.2-3.4-5.3-8-5.9-13.2c-0.2-1.2-0.2-2.3-0.2-3.5c0-14.6,10.2-23.4,20-23.4
		c1.1,0,2.1,0.1,3.2,0.3c9.4,1.7,16.4,11.3,16.4,22.4c0,1.2-0.1,2.4-0.3,3.6l-2.5,0l-2.5,0l-29.1,0.5
		C270,118.8,271.6,122.2,274,124.7z M157.9,124.9c0.9,0.3,1.8,0.5,2.7,0.5c0.5,0,1.1-0.1,1.7-0.2c0.7-0.1,1.3-0.4,1.9-0.7
		c0.5,0.6,1,1.3,1.4,2.1v0c0.4,0.7,0.7,1.5,0.9,2.3c-1,0.5-2.1,0.9-3.3,1.2c-0.9,0.2-1.8,0.3-2.7,0.3c-1.6,0-3.3-0.3-4.8-1
		c-4.4-1.8-8.3-6-9.4-12.4c-0.2-1.3-0.3-2.6-0.3-4c0-11.3,7.7-18,15.2-18c0.8,0,1.6,0.1,2.4,0.2c7,1.3,12.5,8.8,12.5,17.2
		c0,1.4-0.2,2.8-0.5,4.1l-2.6,0l-2.6,0l-18.9,0.3C152.5,121.2,155,123.9,157.9,124.9z M328.5,382.9c-1.1,6.9-7.5,10.1-13.3,10.1
		c-1.6,0-3.2-0.2-4.8-0.6L70.4,329.6c-2.9-0.8-5.5-5.4-4.7-10.5l20.7-122.3l268.7,18L328.5,382.9z M262.3,231.6l-19.9,122.9
		l-118.8-27.3l17.9-107.7L262.3,231.6z"/>
</g>
</svg>
