<?xml version="1.0" encoding="utf-8"?>
<!-- Generator: Adobe Illustrator 25.1.0, SVG Export Plug-In . SVG Version: 6.00 Build 0)  -->
<svg version="1.1" id="Layer_1" xmlns="http://www.w3.org/2000/svg" xmlns:xlink="http://www.w3.org/1999/xlink" x="0px" y="0px"
	 viewBox="0 0 500 500" style="enable-background:new 0 0 500 500;" xml:space="preserve">
<style type="text/css">
	.st0{fill:#FFFFFF;}
	.st1{fill:#FFFFFF;stroke:#000000;stroke-width:10;stroke-miterlimit:10;}
</style>
<g>
	<path class="st0" d="M61,496c-30.3,0-55-24.7-55-55V63C6,32.7,30.7,8,61,8h378c30.3,0,55,24.7,55,55v378c0,30.3-24.7,55-55,55H61z"
		/>
	<path d="M439,13c27.6,0,50,22.4,50,50v378c0,27.6-22.4,50-50,50H61c-27.6,0-50-22.4-50-50V63c0-27.6,22.4-50,50-50H439 M439,3H61
		C27.9,3,1,29.9,1,63v378c0,33.1,26.9,60,60,60h378c33.1,0,60-26.9,60-60V63C499,29.9,472.1,3,439,3L439,3z"/>
</g>
<path d="M401.5,81.5c0,0.1,0,0.3-0.1,0.5C401.4,81.9,401.5,81.7,401.5,81.5z"/>
<path d="M401.5,81.5c0,0.1,0,0.3-0.1,0.5C401.4,81.9,401.5,81.7,401.5,81.5z"/>
<g>
	<path class="st0" d="M272.4,398.1L46,352.6c-7.4-1.5-10.1-10.8-4.5-15.9l185-173c2.1-1.9,4.9-2.8,7.7-2.4L427,189l-1.7,2.7
		c-3.1,5-0.3,11.6,5.4,13l14.5,3.3c3.9,0.9,5.3,5.6,2.6,8.6L280.9,395.4C278.7,397.7,275.5,398.7,272.4,398.1z"/>
	<path d="M453.8,210.1c1.1,3.5,0.2,7.2-2.3,9.9L284.6,398.8c-2.8,2.9-6.5,4.5-10.4,4.5c-0.9,0-1.9-0.1-2.8-0.3L45.1,357.5
		c-5.3-1.1-9.5-4.9-11-10.1s0.1-10.7,4-14.4l185-173c3.2-3,7.4-4.3,11.8-3.7l200.4,28.8 M232.9,166.2c-1.1,0-2.1,0.4-2.9,1.2
		l-185,172.9c-1.7,1.6-1.4,3.6-1.2,4.3c0.2,0.8,1,2.6,3.3,3.1l226.3,45.5c1.5,0.3,2.9-0.2,4-1.3l166.9-178.8c0,0,0.1-0.1,0-0.2
		c0-0.1-0.1-0.1-0.1-0.1l-14.5-3.3c-4.3-1-7.8-4-9.5-8c-1.1-2.7-1.4-5.8-0.7-8.6l-186-26.7C233.3,166.2,233.1,166.2,232.9,166.2z"/>
</g>
<path d="M423.5,220l-197.3-29.1c-2.9-0.4-4-3.9-1.9-5.9h0c0.8-0.7,1.8-1.1,2.9-0.9l197.6,28.8c2.8,0.4,3.9,3.8,2,5.8l-0.3,0.3
	C425.7,219.8,424.6,220.1,423.5,220z"/>
<path d="M410.5,233.5l-197.7-30c-2.8-0.4-3.9-4-1.8-5.9l0.1-0.1c0.8-0.7,1.8-1.1,2.9-0.9l198,29.6c2.8,0.4,3.9,3.8,2,5.8l-0.4,0.4
	C412.7,233.3,411.6,233.6,410.5,233.5z"/>
<path d="M395.8,248.6l-198.2-30.9c-2.8-0.4-3.9-4-1.8-5.9l0.2-0.2c0.8-0.7,1.8-1.1,2.9-0.9l198.5,30.6c2.8,0.4,3.9,3.8,2,5.8
	l-0.5,0.5C398.1,248.4,397,248.8,395.8,248.6z"/>
<path d="M382.5,262.4L184,230.6c-2.8-0.5-3.9-4-1.8-5.9l0.3-0.3c0.8-0.7,1.9-1.1,2.9-0.9L384.2,255c2.8,0.4,3.9,3.8,1.9,5.8
	l-0.6,0.6C384.8,262.2,383.6,262.6,382.5,262.4z"/>
<path d="M357,288.9l-199.4-33.5c-2.8-0.5-3.9-4-1.8-5.9l0.4-0.4c0.8-0.7,1.9-1.1,2.9-0.9l199.7,33.2c2.7,0.5,3.8,3.8,1.9,5.8
	l-0.8,0.8C359.2,288.7,358.1,289.1,357,288.9z"/>
<path d="M343.2,303.2l-199.8-34.4c-2.8-0.5-3.9-4-1.8-5.9l0.5-0.5c0.8-0.7,1.9-1.1,2.9-0.9l200.1,34.1c2.7,0.5,3.8,3.8,1.9,5.8
	l-0.8,0.9C345.5,303,344.3,303.4,343.2,303.2z"/>
<path d="M327.7,319.2l-200.2-35.5c-2.8-0.5-3.8-4-1.8-5.9l0.6-0.6c0.8-0.7,1.9-1.1,3-0.9l200.5,35.1c2.7,0.5,3.8,3.8,1.9,5.8l-0.9,1
	C330,319.1,328.9,319.4,327.7,319.2z"/>
<path d="M313.7,333.8L113,297.4c-2.8-0.5-3.8-4-1.7-5.9l0.7-0.7c0.8-0.8,1.9-1.1,3-0.9L315.9,326c2.7,0.5,3.8,3.8,1.9,5.8l-1,1.1
	C316,333.7,314.8,334.1,313.7,333.8z"/>
</svg>
