<?xml version="1.0" encoding="utf-8"?>
<!-- Generator: Adobe Illustrator 25.1.0, SVG Export Plug-In . SVG Version: 6.00 Build 0)  -->
<svg version="1.1" id="Layer_1" xmlns="http://www.w3.org/2000/svg" xmlns:xlink="http://www.w3.org/1999/xlink" x="0px" y="0px"
	 viewBox="0 0 500 500" style="enable-background:new 0 0 500 500;" xml:space="preserve">
<style type="text/css">
	.st0{fill:#FFFFFF;}
	.st1{fill:#FFFFFF;stroke:#000000;stroke-width:10;stroke-miterlimit:10;}
</style>
<g>
	<path class="st0" d="M61,496c-30.3,0-55-24.7-55-55V63C6,32.7,30.7,8,61,8h378c30.3,0,55,24.7,55,55v378c0,30.3-24.7,55-55,55H61z"
		/>
	<path d="M439,13c27.6,0,50,22.4,50,50v378c0,27.6-22.4,50-50,50H61c-27.6,0-50-22.4-50-50V63c0-27.6,22.4-50,50-50H439 M439,3H61
		C27.9,3,1,29.9,1,63v378c0,33.1,26.9,60,60,60h378c33.1,0,60-26.9,60-60V63C499,29.9,472.1,3,439,3L439,3z"/>
</g>
<path d="M401.5,81.5c0,0.1,0,0.3-0.1,0.5C401.4,81.9,401.5,81.7,401.5,81.5z"/>
<path d="M401.5,81.5c0,0.1,0,0.3-0.1,0.5C401.4,81.9,401.5,81.7,401.5,81.5z"/>
<g>
	<path class="st0" d="M119.6,350c-5.1,0-9.2-4.1-9.2-9.2V140.2c0-5.1,4.1-9.2,9.2-9.2c0.1,0,0.3,0,0.4,0l230.1,10.3
		c4.9,0.2,8.8,4.2,8.8,9.2v173.5c0,4.8-3.7,8.8-8.5,9.2L120.3,350C120,350,119.8,350,119.6,350z"/>
	<path d="M119.6,136c0.1,0,0.1,0,0.2,0l230.1,10.3c2.2,0.1,4,1.9,4,4.2v173.5c0,2.2-1.7,4-3.9,4.2L119.9,345c-0.1,0-0.2,0-0.3,0
		c-2.3,0-4.2-1.9-4.2-4.2V140.2C115.4,137.9,117.3,136,119.6,136 M119.6,126c-7.8,0-14.2,6.3-14.2,14.2v200.6
		c0,7.9,6.4,14.2,14.2,14.2c0.3,0,0.7,0,1.1,0l230.1-16.9c7.4-0.5,13.1-6.7,13.1-14.1V150.5c0-7.6-6-13.8-13.5-14.2L120.2,126
		C120,126,119.8,126,119.6,126L119.6,126z"/>
</g>
<g>
	<path class="st0" d="M161.4,401.2c-5.6,0-10.1-4.5-10.1-10.1V176.8c0-5.6,4.5-10.1,10.1-10.1c0.2,0,0.3,0,0.5,0l245.6,11
		c5.4,0.2,9.7,4.7,9.7,10.1V373c0,5.3-4.1,9.7-9.4,10.1l-245.6,18C161.9,401.1,161.7,401.2,161.4,401.2z"/>
	<path d="M161.4,171.7c0.1,0,0.2,0,0.2,0l245.6,11c2.8,0.1,4.9,2.4,4.9,5.1V373c0,2.7-2.1,4.9-4.8,5.1l-245.6,18c-0.1,0-0.3,0-0.4,0
		c-2.8,0-5.1-2.3-5.1-5.1V176.8C156.3,174,158.6,171.7,161.4,171.7 M161.4,161.7c-8.3,0-15.1,6.7-15.1,15.1V391
		c0,8.4,6.8,15.1,15.1,15.1c0.4,0,0.7,0,1.1,0l245.6-18c7.9-0.6,14-7.2,14-15.1V187.8c0-8.1-6.4-14.8-14.5-15.1l-245.6-11
		C161.9,161.7,161.6,161.7,161.4,161.7L161.4,161.7z"/>
</g>
<g>
	<path d="M389,343.8l-48.5-128.7c-4.5-11.8-19.5-12.8-24.1-1.3l-39.2,98.2l-22.3-47.9c-2.2-4.8-6.7-7.3-11.1-7.4
		c-4.5-0.1-9,2.2-11.3,7.1l-43.6,90.9c-4.4,9.1,2.1,19.2,11.9,18.6l177.1-9.7C386.5,363.2,392.3,352.8,389,343.8z M200.7,362
		c-0.7,0-1.2-0.2-1.6-0.8c-0.4-0.6-0.4-1.2-0.1-1.8l43.1-90.5c0.1-0.3,0.5-1,1.6-1c1.1,0,1.5,0.8,1.6,1.1l26.5,56.5l-13.5,33.8
		L200.7,362z"/>
</g>
</svg>
